<svg xmlns="http://www.w3.org/2000/svg" fill="none" viewBox="0 0 394 80">
  <path fill="#000" fill-rule="evenodd" d="M262 0h68.5v12.7h-27.2v66.6h-13.6V12.7H262V0ZM149 0v12.7H94v20.4h44.3v12.6H94v21h55v12.6H80.5V0h68.7Zm34.3 0h-34.3v79.3h13.6V56.4h20.7c23.4 0 36.2-15.3 36.2-28.2 0-13-12.8-28.3-36.2-28.3Zm.8 41.4h-21.5V12.7h21.5c13.8 0 21.2 9.4 21.2 14.3 0 4.9-7.4 14.3-21.2 14.3ZM247 66.7 194.2 0h-14.5v79.3h13.6V25l52.7 54.3h14.5V12.6H261v54.1h-14ZM80.5 0 0 79.3h13.6l66.9-66.6h.5v66.6h13.6V0h-13.6Z" clip-rule="evenodd"/>
</svg>
