<svg xmlns="http://www.w3.org/2000/svg" fill="none" viewBox="0 0 283 64">
  <path fill="black" d="M141 16c-11 0-19 7-19 18s9 18 20 18c7 0 13-3 16-7l-7-5c-2 3-6 4-9 4-5 0-9-3-10-7h28v-3c0-11-8-18-19-18Zm-9 15c1-4 4-7 9-7s8 3 9 7h-18Zm117-15c-11 0-19 7-19 18s9 18 20 18c6 0 12-2 16-7l-8-5c-2 2-5 4-8 4-5 0-9-3-11-7h28l1-3c0-11-8-18-19-18Zm-9 15c2-4 5-7 10-7s8 3 9 7h-19ZM171 16c-11 0-19 7-19 18s9 18 20 18c6 0 12-2 16-7l-8-5c-2 2-5 4-8 4-5 0-9-3-11-7h28v-3c0-11-8-18-19-18Zm-9 15c1-4 4-7 9-7s8 3 9 7h-18Zm-45 3v3c0 11 8 18 19 18 7 0 13-3 16-7l8 5c-4 5-11 8-24 8-12 0-22-7-22-20s10-20 22-20c11 0 19 7 19 18v3h-28Zm-26 0v3c0 11 8 18 19 18 7 0 13-3 16-7l8 5c-4 5-11 8-24 8-12 0-22-7-22-20s10-20 22-20c11 0 19 7 19 18v3H91Zm-45-3 1 3c0 11 8 18 19 18 6 0 12-2 16-7l8 5c-4 5-11 8-24 8-12 0-22-7-22-20s10-20 22-20c11 0 19 7 19 18v3H46Zm-1-18c-12 0-22 7-22 20s10 20 22 20c11 0 19-7 19-18v-3c0-11-8-18-19-18h-1l1-1Zm-26 1v2c0 11 8 18 19 18 7 0 13-3 16-7l8 5c-4 5-11 8-24 8-12 0-22-7-22-20s10-20 22-20c11 0 19 7 19 18v3H19Zm-1-18c-12 0-22 7-22 20s10 20 22 20c11 0 19-7 19-18v-3c0-11-8-18-19-18h-1l1-1Z"/>
</svg>
